<svg width="57" height="56" viewBox="0 0 57 56" fill="none" xmlns="http://www.w3.org/2000/svg">
<rect width="56.4194" height="56" rx="28" fill="#F0F4FF"/>
<g clip-path="url(#clip0_481_245)">
<path d="M33.3891 20.7898H29.5378H24.2142H19.9786C18.3404 20.7898 17.0156 22.1057 17.0156 23.7263V38.1225C17.0156 39.7461 18.3435 41.059 19.9786 41.059H24.2142H29.5378H31.5264C32.553 41.059 33.3891 40.2335 33.3891 39.213V37.8148" fill="#D2F1FF"/>
<path d="M33.3891 20.7898H29.5378H24.2142H19.9786C18.3404 20.7898 17.0156 22.1057 17.0156 23.7263V38.1225C17.0156 39.7461 18.3435 41.059 19.9786 41.059H24.2142H29.5378H31.5264C32.553 41.059 33.3891 40.2335 33.3891 39.213V37.8148" stroke="#57B0EE" stroke-width="2.94118" stroke-miterlimit="10" stroke-linecap="round"/>
<path d="M23.6178 37.763H38.2208C39.5271 37.763 40.5876 36.7121 40.5876 35.4174V19.8363C40.5876 18.5417 39.5271 17.4907 38.2208 17.4907H23.6178C22.3115 17.4907 21.2511 18.5417 21.2511 19.8363V35.4205C21.2511 36.7151 22.3115 37.763 23.6178 37.763Z" fill="white" stroke="#57B0EE" stroke-width="2.94118" stroke-miterlimit="10"/>
<path d="M28.4895 20.7898H33.14" stroke="#57B0EE" stroke-width="2.94118" stroke-miterlimit="10" stroke-linecap="round"/>
<path d="M26.7253 14.9988V17.4601" stroke="#57B0EE" stroke-width="2.94118" stroke-miterlimit="10" stroke-linecap="round"/>
<path d="M34.9043 14.9985V17.4598" stroke="#57B0EE" stroke-width="2.94118" stroke-miterlimit="10" stroke-linecap="round"/>
<path d="M26.6147 27.1533H24.5308C24.1988 27.1533 23.9283 26.8852 23.9283 26.5562V24.3356C23.9283 24.0066 24.1988 23.7385 24.5308 23.7385H26.6147C26.9467 23.7385 27.2172 24.0066 27.2172 24.3356V26.5562C27.2172 26.8883 26.9467 27.1533 26.6147 27.1533Z" fill="#57B0EE"/>
<path d="M31.889 27.1533H29.8051C29.4731 27.1533 29.2026 26.8852 29.2026 26.5562V24.3356C29.2026 24.0066 29.4731 23.7385 29.8051 23.7385H31.889C32.221 23.7385 32.4915 24.0066 32.4915 24.3356V26.5562C32.4884 26.8883 32.221 27.1533 31.889 27.1533Z" fill="#57B0EE"/>
<path d="M37.1604 27.1533H35.0764C34.7445 27.1533 34.474 26.8852 34.474 26.5562V24.3356C34.474 24.0066 34.7445 23.7385 35.0764 23.7385H37.1604C37.4923 23.7385 37.7628 24.0066 37.7628 24.3356V26.5562C37.7598 26.8883 37.4923 27.1533 37.1604 27.1533Z" fill="#57B0EE"/>
<path d="M26.6147 33.4343H24.5308C24.1988 33.4343 23.9283 33.1662 23.9283 32.8372V30.6166C23.9283 30.2876 24.1988 30.0195 24.5308 30.0195H26.6147C26.9467 30.0195 27.2172 30.2876 27.2172 30.6166V32.8372C27.2172 33.1693 26.9467 33.4343 26.6147 33.4343Z" fill="#57B0EE"/>
<path opacity="0.19" d="M33.7487 35.3686C35.5735 35.3686 37.0528 33.9025 37.0528 32.094C37.0528 30.2854 35.5735 28.8193 33.7487 28.8193C31.9238 28.8193 30.4445 30.2854 30.4445 32.094C30.4445 33.9025 31.9238 35.3686 33.7487 35.3686Z" fill="#68DB0E"/>
<path d="M32.7589 31.5639L34.1851 32.889C34.3142 33.0109 34.514 32.9895 34.6216 32.8494L36.9514 29.7454" stroke="#68DB0E" stroke-width="2.94118" stroke-miterlimit="10" stroke-linecap="round"/>
</g>
<defs>
<clipPath id="clip0_481_245">
<rect width="27.0588" height="30" fill="white" transform="translate(15 13)"/>
</clipPath>
</defs>
</svg>
